External Loads File
version=1
nRows=38
nColumns=13
Range=5.000000e-03-10 seconds
endheader
time 	forceRightX 	forceRightY 	forceRightZ 	pointRightX 	pointRightY 	pointRightZ 	forceLeftX 	forceLeftY 	forceLeftZ 	pointLeftX 	pointLeftY 	pointLeftZ 		
5.005000 -142.665436 -268.794253 -0.000000 0.177017 0.252385 -0.103769 -93.670300 659.068506 -0.000000 0.469507 0.342267 -0.357951
5.010000 -145.220057 -249.747962 -0.000000 0.176015 0.262358 -0.103926 -100.754815 682.646676 -0.000000 0.471026 0.331276 -0.357776
5.015000 -142.283611 -227.729090 -0.000000 0.175394 0.272596 -0.104146 -104.724050 706.986191 -0.000000 0.471975 0.320203 -0.357610
5.020000 -134.542283 -204.257735 -0.000000 0.175385 0.282979 -0.104479 -105.772837 732.117626 -0.000000 0.472388 0.308980 -0.357743
5.025000 -122.986588 -180.612238 -0.000000 0.176016 0.293569 -0.104760 -103.908346 758.136682 -0.000000 0.472200 0.297655 -0.357668
5.030000 -108.724893 -157.842074 -0.000000 0.177171 0.304329 -0.105080 -99.113093 785.180479 -0.000000 0.471237 0.286178 -0.358031
5.035000 -92.633437 -136.917759 -0.000000 0.178991 0.315023 -0.105388 -92.907937 813.235673 -0.000000 0.469979 0.274832 -0.357828
5.040000 -75.916810 -118.285295 -0.000000 0.181442 0.325878 -0.105662 -85.283147 842.489571 -0.000000 0.467950 0.263836 -0.357662
5.045000 -59.487056 -102.256177 -0.000000 0.184555 0.336548 -0.106009 -77.151668 872.861409 -0.000000 0.465304 0.253239 -0.357334
5.050000 -44.387119 -88.772010 -0.000000 0.188310 0.347147 -0.106213 -66.709494 904.235389 -0.000000 0.462055 0.242665 -0.357011
5.055000 -31.165529 -77.854965 -0.000000 0.192571 0.357659 -0.106532 -54.567344 936.069472 -0.000000 0.458123 0.232479 -0.356812
5.060000 -20.388571 -69.347652 -0.000000 0.197273 0.367963 -0.106792 -39.929658 967.866885 -0.000000 0.453545 0.222381 -0.356584
5.065000 -12.433728 -63.033906 -0.000000 0.202766 0.378061 -0.107251 -22.525055 998.989621 -0.000000 0.448484 0.212517 -0.356470
5.070000 -7.514659 -58.596551 -0.000000 0.208789 0.387983 -0.107626 -2.347808 1028.635754 -0.000000 0.442879 0.202936 -0.356368
5.075000 -5.599036 -55.607021 -0.000000 0.215381 0.397443 -0.108005 19.350882 1055.872949 -0.000000 0.436779 0.193938 -0.356209
5.080000 -6.583689 -53.534729 -0.000000 0.222378 0.406591 -0.108465 43.539015 1079.664396 -0.000000 0.430175 0.185287 -0.356047
5.085000 -10.095388 -51.843356 -0.000000 0.229955 0.415121 -0.108860 69.330874 1098.964281 -0.000000 0.423081 0.177257 -0.355860
5.090000 -15.704378 -50.028036 -0.000000 0.237879 0.423226 -0.109319 97.106098 1112.753023 -0.000000 0.415475 0.169651 -0.355715
5.095000 -22.853833 -47.657976 -0.000000 0.246194 0.430865 -0.110020 126.135656 1120.168036 -0.000000 0.407537 0.162411 -0.355662
5.100000 -30.957335 -44.376489 -0.000000 0.255066 0.437939 -0.110484 155.532698 1120.452114 -0.000000 0.399292 0.155880 -0.355683
5.105000 -39.472770 -39.847210 -0.000000 0.264292 0.444735 -0.110935 185.361718 1112.755274 -0.000000 0.390664 0.149802 -0.355619
5.110000 -47.772876 -33.844906 -0.000000 0.273717 0.450778 -0.111249 213.015667 1096.754081 -0.000000 0.381851 0.144218 -0.355649
5.115000 -55.322870 -26.154986 -0.000000 0.283168 0.455917 -0.111694 237.039976 1072.268799 -0.000000 0.372869 0.139283 -0.355872
5.120000 -61.717532 -16.489623 -0.000000 0.292901 0.460505 -0.111989 258.188821 1038.848452 -0.000000 0.363708 0.135013 -0.356019
5.125000 -66.585804 -4.752473 -0.000000 0.302774 0.464247 -0.112249 275.102655 996.615529 -0.000000 0.354473 0.131280 -0.356091
5.130000 -69.674631 9.001379 -0.000000 0.312637 0.467252 -0.112380 286.768526 945.903238 -0.000000 0.345226 0.128342 -0.356067
5.135000 -70.799787 24.642763 -0.000000 0.322698 0.469735 -0.112411 293.633117 886.999010 -0.000000 0.335973 0.125944 -0.356221
5.140000 -69.850975 41.767113 -0.000000 0.332660 0.471599 -0.112403 294.788063 820.968710 -0.000000 0.326670 0.124206 -0.356326
5.145000 -66.822613 59.850788 -0.000000 0.342589 0.472717 -0.112408 290.077113 748.960054 -0.000000 0.317522 0.123111 -0.356419
5.150000 -61.827036 78.292750 -0.000000 0.352390 0.473391 -0.112572 279.914755 672.176210 -0.000000 0.308460 0.122957 -0.356520
5.155000 -55.187475 96.473755 -0.000000 0.361759 0.473424 -0.112408 264.553063 592.183899 -0.000000 0.299395 0.123351 -0.356648
5.160000 -47.282941 114.085748 -0.000000 0.370869 0.472956 -0.112500 245.163138 510.426956 -0.000000 0.290395 0.124522 -0.357011
5.165000 -38.646954 131.233492 -0.000000 0.379426 0.471766 -0.112235 222.457102 428.720257 -0.000000 0.281476 0.126398 -0.357095
5.170000 -29.652862 148.576574 -0.000000 0.387544 0.469881 -0.112194 197.770426 348.638024 -0.000000 0.272719 0.129046 -0.357166
5.175000 -20.467623 167.100924 -0.000000 0.395511 0.467319 -0.111520 172.448338 271.590235 -0.000000 0.264116 0.132312 -0.357293
5.180000 -11.522236 187.819934 -0.000000 0.402709 0.464287 -0.111238 147.072235 199.122593 -0.000000 0.255589 0.136155 -0.357219
5.185000 -2.650750 211.666719 -0.000000 0.409732 0.460468 -0.110492 122.881520 131.871076 -0.000000 0.247248 0.140596 -0.357133
5.190000 5.472933 239.222335 -0.000000 0.415718 0.456051 -0.109891 100.106365 70.654927 -0.000000 0.239220 0.145689 -0.357180
